<?xml version="1.0" encoding="UTF-8"?>
<svg id="Layer_1" xmlns="http://www.w3.org/2000/svg" version="1.1" viewBox="0 0 1945.37 600">
  <!-- Generator: Adobe Illustrator 30.3.0, SVG Export Plug-In . SVG Version: 2.1.3 Build 182)  -->
  <defs>
    <style>
      .st0 {
        fill: #f68f23;
      }

      .st1 {
        fill: #1c1c1b;
      }
    </style>
  </defs>
  <path class="st1" d="M902.73,565.35l754.05-.06,28.4-103.8,133.4-1.52-38.51-208.16,140.42-213.5s-1842.21-3.9-1834.67,0c-2.05,25.44-8.39,58.69-13.01,85.9L15.73,460.26s869.51-8.86,910.09,0l-23.09,105.09Z"/>
  <g>
    <path class="st0" d="M1099.24,424.99c2,.63,2.57,1.38,2.43,2.51l-2.29,12.42c-.43,1.76-1.43,2.38-3.57,2.38h-34.58c-6.86,0-10.86,2.26-11.72,6.65l-.29,1.51c-.57,3.51,1.14,6.15,5.86,7.9l23.29,8.03c13.15,4.64,19.58,9.91,16.58,26.85l-.57,3.26c-3.29,18.32-20.44,25.22-47.45,25.22-10.15,0-21.29-.88-34.87-3.14-2.14-.38-2.72-1.25-2.43-3.14l2.14-11.29c.29-1.88,1.43-2.63,3.57-2.63h41.3c6.57,0,10.43-1.88,11.29-6.15l.14-1.25c1-4.77-2-6.65-8.29-8.78l-23.29-7.9c-11.58-3.76-16.86-10.41-13.86-27.48l.43-2.76c3.43-18.32,18.01-25.09,45.73-25.09,12,0,20.01.88,30.44,2.89Z"/>
    <path class="st0" d="M1200.56,455.1c-4.43,24.97-16.01,30.99-47.02,30.99h-17.58l-5.86,33c-.43,1.63-.86,2.01-2.57,2.01h-22.15c-1.71,0-2.14-.38-1.71-2.01l16.86-93.72c.14-1.25.71-1.63,2.43-1.76,14.29-1,28.58-1.51,42.16-1.51,30.87,0,40.02,8.28,35.44,33ZM1143.82,442.3l-4.72,26.47h14.72c13.72,0,18.01-2.51,19.87-12.92,1.86-10.29-1.43-13.55-15.01-13.55h-14.86Z"/>
    <path class="st0" d="M1302.17,472.04c-7,38.26-19.58,49.68-56.74,49.68s-45.45-11.42-38.59-49.68c6.86-38.52,19.44-49.93,56.59-49.93s45.59,11.42,38.73,49.93ZM1233.57,472.04c-4,22.21-1.72,29.48,15.58,29.48s22.15-7.28,26.15-29.48c4.14-22.46,1.71-29.73-15.44-29.73s-22.15,7.28-26.29,29.73Z"/>
    <path class="st0" d="M1405.78,455.1c-3.29,18.44-10.29,26.47-26.44,29.48l18.15,34c.86,1.38,0,2.51-2.14,2.51h-22.29c-3.29,0-4.14-.88-5.29-2.76l-17.44-32.24h-9.15l-5.86,33c-.43,1.63-.86,2.01-2.57,2.01h-22.15c-1.71,0-2.14-.38-1.71-2.01l16.86-93.72c.14-1.25.71-1.63,2.43-1.76,14.29-1,28.58-1.51,42.16-1.51,30.87,0,40.02,8.28,35.44,33ZM1349.04,442.3l-4.72,26.47h14.72c13.72,0,18.01-2.51,19.87-12.92,1.86-10.29-1.43-13.55-15.01-13.55h-14.86Z"/>
    <path class="st0" d="M1503.53,422.86c1.43,0,2,.63,1.86,1.88l-2.86,16.43c-.29,1.25-1.29,1.88-2.72,1.88h-28.58l-13.72,76.03c-.29,1.38-1.14,2.01-2.57,2.01h-22.15c-1.43,0-2-.63-1.72-2.01l13.58-76.03h-28.44c-1.57,0-2.14-.63-1.86-1.88l2.86-16.43c.14-1.25,1-1.88,2.57-1.88h83.75Z"/>
    <path class="st0" d="M1584.99,424.99c2,.63,2.57,1.38,2.43,2.51l-2.29,12.42c-.43,1.76-1.43,2.38-3.57,2.38h-34.58c-6.86,0-10.86,2.26-11.72,6.65l-.29,1.51c-.57,3.51,1.14,6.15,5.86,7.9l23.29,8.03c13.15,4.64,19.58,9.91,16.58,26.85l-.57,3.26c-3.29,18.32-20.44,25.22-47.45,25.22-10.15,0-21.29-.88-34.87-3.14-2.14-.38-2.72-1.25-2.43-3.14l2.14-11.29c.29-1.88,1.43-2.63,3.57-2.63h41.3c6.57,0,10.43-1.88,11.29-6.15l.14-1.25c1-4.77-2-6.65-8.29-8.78l-23.29-7.9c-11.58-3.76-16.86-10.41-13.86-27.48l.43-2.76c3.43-18.32,18.01-25.09,45.73-25.09,12,0,20.01.88,30.44,2.89Z"/>
  </g>
</svg>