<?xml version="1.0" encoding="UTF-8"?>
<svg id="Layer_1" xmlns="http://www.w3.org/2000/svg" version="1.1" viewBox="0 0 1190.1 1556.88">
  <!-- Generator: Adobe Illustrator 30.3.0, SVG Export Plug-In . SVG Version: 2.1.3 Build 182)  -->
  <defs>
    <style>
      .st0 {
        fill: #f68f23;
      }

      .st1 {
        fill: #b94526;
      }

      .st2 {
        fill: #f06b23;
      }

      .st3 {
        fill: #a1572b;
      }

      .st4 {
        fill: #483119;
      }

      .st5 {
        fill: #dd5427;
      }
    </style>
  </defs>
  <path class="st3" d="M106.73,1185.53c-2.75-.35-1.73-3.01-1.75-4.55h2.07s-.32,4.55-.32,4.55Z"/>
  <path class="st5" d="M1088.73,864.76"/>
  <path class="st3" d="M145.84,801.65c-2.75-.35-1.73-3.01-1.75-4.55h2.07s-.32,4.55-.32,4.55Z"/>
  <path class="st2" d="M979.24,1556.88l-73.73-.56-2.25-3.74c78.77-91.41,80.86-218.47,15.05-319.59-29.41,87.37-122.25,137.32-209.12,150.34-9.4,1.41-46.99,6.81-51.37-.69-.66-1.12.74-3.44,2.73-6.11,56.86-59.39,104.2-131.48,114.46-214.45,11.35-91.86-17.61-197.8-55.25-279-19.28,76.02-89.3,124.17-154.35,161.27-103.53,50.94-219.19,119.8-251.23,238.48-24.22,89.73-9.88,181.85,34.12,263.1l1.2,10.47-131.81.03-7.98-3.71c-126.4-174.06-78.82-429.8,78.1-570.25,53.37-41.89,103.47-82.89,138.84-142.5,5.02-7.68,7.7-4.2,12.03,3.18,7.71,24.76,13.41,50,17.11,75.74-3.49,7.83-3.15,7.78,1.02-.14,61.53-54.82,118.85-117.15,155.92-191.13,37.77-75.38,51.79-154.84,54.96-237.97,1.73-14.77,9.46-55.48,18.26-65.55,6.13-7.01,9.05-9.59,12.31.06,34.17,107.12,80.81,209.63,135.61,307.98,38.75,80.07,62.95,171.9,58.25,261.03-5.97,113.12-55.77,213.14-111.54,309.31,43.05-45.23,86.68-91.12,123.91-141.81,32.26-43.93,68.94-96.85,64.82-152.82,2.04-11.24,3.56-11.56,13.07-3.65,56.6,48.27,85.02,116.78,98.69,188.89,24.8,130.81-14.83,256.21-93.27,360.31l-8.55,3.48Z"/>
  <path class="st5" d="M845.54,450.4c25.91,49.42,46.76,101.41,66.34,154.66,26.19,71.24,38.05,143.8,40.44,220.9,29.43-39.06,50.22-79.64,56.6-129.52,24.91,31.02,42.61,63.29,56.28,99.43,37.6,99.45,90.62,265.46,103.49,367.56,3.45,27.36,4.4,55.03,3.88,83.82-2.09,117.71-53.37,224.68-130.85,309.29l-62.48.35c5.6-6.14,11.08-12.03,16.36-19.76,49.62-72.54,89.07-168.75,89.38-258.08.19-55.9-9.91-109.88-29.48-161.97-17.09-45.49-44.13-84.01-82.9-115.93,3.3,25.7-.62,49.08-11.03,72.63-33.95,76.77-108.89,159.27-167.39,220.08-11.14,11.58-20.48,22.62-32.02,32.2,50.04-86.94,96.61-167.2,116.75-263.09,13.11-62.42,13.1-124.13-.05-186.53-12.85-60.97-33.85-117.35-63.76-172-30.09-54.97-57.65-109.09-80.25-167.75-15.04-39.04-28.97-76-42.07-117.15-13.96,26.1-20.56,54.88-22.33,84.89-2.36,40.05-5.62,77.99-15.09,117.31-16.28,67.57-44.82,129.32-87.12,184.47-34.1,44.45-72,84.34-115,120.64-6.08-31.44-9.4-60-20.8-89.04-13.31,21.32-27.88,40.9-43.81,60.34-21.39,26.1-45.84,45.14-72.43,65.75-51.67,40.04-93.27,91.25-123.76,149.31-59.96,114.16-67.93,254.07-17.7,373.13,11.09,26.28,25.9,48.71,42.98,70.12l-81.46.2c-61.01-62.32-95.83-142.24-105.79-227.3-.42-3.63.53-8.72-.56-12.06-.4-19.32-1.45-38.57.25-57.87,4.31-3.05,1.06-9.05,1.59-14.33,9.88-97.91,38.32-193.68,90.75-275.71l25.49-39.88c2.16-3.38,5.72-6.57,8.16-9.96,25.98-36.05,54.03-69.89,83.08-104.88,138.3-166.59,188.84-256.27,236.19-463.02l31.28-136.57c5.48-23.91,13.24-45.75,21.38-68.67,10.67-26.32,23.44-50.38,41.74-72.09,17.75-21.07,35.34-40.84,58.2-58.93-19.42,68.07,3.78,108.23,38.9,161.7l58.15,82.05c43.99,62.07,85.52,124.58,120.49,191.28Z"/>
  <path class="st1" d="M122.47,969.37l-3.28,12.85c-50.3,83.59-77.89,181.96-84.11,277.48l-4.95-.29c1.37-15.56-2.72-30.89-3.7-46.31-3.91-61.23-7.49-122.75-.67-183.88,6.51-58.35,27.05-148.34,55.37-198.77,6.06,47.14,16.08,90.64,35.19,132.12,1.61,3.49,2.95,6.3,6.15,6.8Z"/>
  <path class="st0" d="M905.51,1556.32l-556.01.09c-48.25-85.4-65.83-182.99-37.82-279.45,23.17-79.78,90.44-143.87,159.51-185.87,50.45-30.68,103.95-51.79,152.06-88.1,46.69-35.7,85.17-72.8,95.41-134.4,37.1,76.28,56.64,155.35,62,237.35,3.13,52.92-6.53,103.11-29.93,150.37-21.5,47.43-52.37,86.13-90.62,126.1,99.55,2.95,231.04-55.02,257.12-160.36,60.3,94.54,74.9,211.34,9.46,304.19l-21.2,30.08Z"/>
  <path class="st4" d="M26.43,1213.1c-1.67,1.28-2.22,1.29-2.08.97s.98-.95,2.08-.97Z"/>
  <path class="st5" d="M1127.85,480.87"/>
</svg>