<?xml version="1.0" encoding="UTF-8"?>
<svg id="Layer_1" xmlns="http://www.w3.org/2000/svg" version="1.1" viewBox="0 0 678.89 967.9">
  <!-- Generator: Adobe Illustrator 30.5.1, SVG Export Plug-In . SVG Version: 2.1.4 Build 3)  -->
  <defs>
    <style>
      .st0 {
        fill: #f68f23;
      }

      .st1 {
        fill: #b94526;
      }

      .st2 {
        fill: #f06b23;
      }

      .st3 {
        fill: #a1572b;
      }

      .st4 {
        fill: #483119;
      }

      .st5 {
        fill: #dd5427;
      }
    </style>
  </defs>
  <g>
    <path class="st3" d="M50.03,690.33c-1.62-.21-1.02-1.77-1.03-2.68h1.22s-.19,2.68-.19,2.68Z"/>
    <path class="st5" d="M629.35,501.09"/>
    <path class="st3" d="M73.1,463.86c-1.62-.21-1.02-1.77-1.03-2.68h1.22s-.19,2.68-.19,2.68Z"/>
    <path class="st2" d="M564.76,909.4l-43.5-.33-1.33-2.2c46.47-53.93,47.7-128.88,8.88-188.54-17.35,51.55-72.12,81.01-123.37,88.69-5.55.83-27.72,4.02-30.31-.41-.39-.66.44-2.03,1.61-3.6,33.54-35.04,61.47-77.57,67.52-126.51,6.7-54.19-10.39-116.69-32.59-164.59-11.38,44.85-52.68,73.25-91.06,95.14-61.08,30.05-129.31,70.67-148.21,140.69-14.29,52.93-5.83,107.28,20.13,155.21l.71,6.18-77.76.02-4.71-2.19c-74.57-102.69-46.5-253.56,46.07-336.41,31.49-24.72,61.04-48.9,81.91-84.07,2.96-4.53,4.55-2.48,7.1,1.88,4.55,14.61,7.91,29.5,10.1,44.68-2.06,4.62-1.86,4.59.6-.09,36.3-32.34,70.11-69.11,91.98-112.75,22.28-44.47,30.55-91.35,32.42-140.39,1.02-8.71,5.58-32.73,10.77-38.67,3.61-4.14,5.34-5.66,7.26.04,20.16,63.2,47.68,123.67,80,181.69,22.86,47.24,37.14,101.41,34.36,153.99-3.52,66.73-32.9,125.74-65.8,182.47,25.4-26.68,51.14-53.76,73.1-83.66,19.03-25.92,40.67-57.13,38.24-90.15,1.21-6.63,2.1-6.82,7.71-2.15,33.39,28.48,50.16,68.9,58.22,111.43,14.63,77.17-8.75,151.15-55.02,212.56l-5.04,2.05Z"/>
    <path class="st5" d="M485.88,256.64c15.29,29.16,27.59,59.82,39.14,91.24,15.45,42.03,22.45,84.83,23.86,130.32,17.36-23.04,29.62-46.98,33.39-76.41,14.69,18.3,25.14,37.34,33.2,58.66,22.18,58.67,53.46,156.61,61.05,216.84,2.03,16.14,2.59,32.47,2.29,49.45-1.24,69.44-31.49,132.55-77.19,182.46l-36.86.2c3.3-3.62,6.53-7.1,9.65-11.66,29.27-42.8,52.55-99.55,52.73-152.25.11-32.98-5.85-64.82-17.39-95.55-10.08-26.84-26.03-49.56-48.9-68.39,1.95,15.16-.36,28.96-6.51,42.85-20.03,45.29-64.24,93.96-98.75,129.83-6.57,6.83-12.08,13.34-18.89,18.99,29.52-51.29,56.99-98.64,68.88-155.2,7.73-36.82,7.73-73.23-.03-110.04-7.58-35.97-19.97-69.23-37.62-101.47-17.75-32.43-34.01-64.36-47.34-98.96-8.87-23.03-17.09-44.83-24.82-69.11-8.24,15.4-12.13,32.38-13.17,50.08-1.39,23.63-3.31,46.01-8.9,69.21-9.6,39.86-26.44,76.29-51.39,108.83-20.12,26.22-42.48,49.75-67.84,71.17-3.59-18.55-5.55-35.4-12.27-52.53-7.85,12.57-16.45,24.13-25.85,35.6-12.62,15.4-27.04,26.63-42.73,38.79-30.48,23.62-55.02,53.83-73.01,88.08-35.38,67.35-40.07,149.88-10.44,220.12,6.54,15.5,15.28,28.73,25.35,41.37l-48.06.12c-35.99-36.76-56.53-83.91-62.41-134.09-.25-2.14.31-5.15-.33-7.11-.24-11.4-.85-22.75.15-34.14,2.54-1.8.63-5.34.94-8.45,5.83-57.76,22.6-114.26,53.54-162.65l15.04-23.52c1.28-2,3.37-3.88,4.81-5.88,15.33-21.27,31.87-41.23,49.01-61.88,81.59-98.28,111.4-151.18,139.34-273.15l18.45-80.57c3.23-14.11,7.81-26.99,12.62-40.51,6.29-15.53,13.83-29.72,24.62-42.53,10.47-12.43,20.85-24.1,34.34-34.77-11.46,40.16,2.23,63.85,22.95,95.39l34.31,48.4c25.95,36.62,50.45,73.49,71.08,112.84Z"/>
    <path class="st1" d="M59.32,562.8l-1.94,7.58c-29.67,49.31-45.95,107.35-49.62,163.7l-2.92-.17c.81-9.18-1.6-18.23-2.18-27.32-2.3-36.12-4.42-72.41-.39-108.48,3.84-34.42,15.96-87.51,32.66-117.26,3.58,27.81,9.48,53.47,20.76,77.94.95,2.06,1.74,3.72,3.63,4.01Z"/>
    <path class="st0" d="M521.26,909.07l-328.01.05c-28.47-50.38-38.83-107.96-22.31-164.86,13.67-47.07,53.36-84.87,94.1-109.65,29.76-18.1,61.32-30.55,89.71-51.97,27.55-21.06,50.25-42.95,56.28-79.29,21.89,45,33.41,91.64,36.58,140.02,1.85,31.22-3.85,60.83-17.66,88.71-12.69,27.98-30.89,50.81-53.46,74.39,58.73,1.74,136.3-32.46,151.69-94.6,35.57,55.77,44.19,124.68,5.58,179.45l-12.51,17.74Z"/>
    <path class="st4" d="M2.66,706.59c-.99.75-1.31.76-1.23.57s.58-.56,1.23-.57Z"/>
    <path class="st5" d="M652.42,274.62"/>
  </g>
  <rect x="9.77" y="909.4" width="663.64" height="58.5" rx="29.25" ry="29.25"/>
</svg>