<?xml version="1.0" encoding="UTF-8"?>
<svg id="Layer_1" xmlns="http://www.w3.org/2000/svg" version="1.1" viewBox="0 0 1703.41 600">
  <!-- Generator: Adobe Illustrator 30.3.0, SVG Export Plug-In . SVG Version: 2.1.3 Build 182)  -->
  <defs>
    <style>
      .st0 {
        fill: #fff;
      }

      .st1 {
        fill: #dd5427;
      }
    </style>
  </defs>
  <polygon class="st1" points="254.25 426.37 168.03 427.53 183.48 333.69 124.89 333.01 107.37 426.82 21.04 427.06 67.18 171.29 153.27 170.59 139.06 260.98 195.99 261.15 213.45 170.65 299.64 170.73 254.25 426.37"/>
  <path class="st0" d="M1587.1,291.29l32.84,135.51-83.69.45-24.45-85.39c-1.25-4.36-16.47-5.01-17.72-.56l-16.31,84.84c-28.33,2.54-56.23,1.21-86.78.88l46.91-256.34,85.35.13c-2.75,31.06-12.74,58.02-12.87,87.16-.03,5.78,13.03.16,15.62-3.43l60.48-83.78,83.98.41-83.35,120.13Z"/>
  <path class="st0" d="M1263.8,356.39c21.4,2.84,35.93-6.27,39.46-26.86l83.47,3.41c4.15,46.46-25.69,86.26-73.36,93.73-38,5.96-77.74,6.45-115.33-1.49-32.64-6.89-52.89-34.73-48.66-68.17,5.14-40.67,12.35-80.01,21.85-119.68,7.9-33,32.72-57.25,66.25-63.05,40.29-6.97,81.55-7.43,121.52.14,20.15,3.82,37.85,16.51,43.78,35.49,5.56,17.78,3.63,35.47-.31,53.86l-87.18,4.03c-1.44-7.43-1.53-13.22-4.67-17.06-4.18-5.11-12-4.78-18.57-5.53-20.28-2.31-34.08,6.67-37.46,26.25l-11.07,64.27c-1.08,6.28.18,11.62,3.29,15.08,3.85,4.28,9.72,4.6,17,5.57Z"/>
  <path class="st1" d="M672.65,426.55l-87.33.82,32.26-180.59-56.78-2.2c1.16-25.87-.82-49.88-15.31-73.69l229.61-.69,2.68,74.64-72.65,1.2-32.49,180.51Z"/>
  <polygon class="st0" points="1118.89 426.38 1031.02 426.99 1076.95 170.67 1164.62 170.86 1118.89 426.38"/>
  <path class="st1" d="M495.72,172.71c-38.42-6.08-78.01-5.42-116.65,0-38.35,5.38-66.76,32.14-73.47,69.49l-20.15,112.16c-5.94,33.06,15,63.6,49.32,70.18,42.21,8.09,87.16,8.15,131.42-.27,30.38-5.78,54.24-27.61,61.16-55.86,10.5-42.89,17.79-85.65,20.45-129.66,2.05-33.86-18.67-60.76-52.08-66.05ZM453.49,264.6l-11.55,65.78c-3.45,19.67-16.23,27.55-34.74,26.12-6.84-.53-14.2-.39-19.64-4.3-14.09-10.13,2.74-78.53,7.59-93.55,6.71-20.78,44.97-16.28,53.8-10.11,4.12,2.88,5.7,9.46,4.54,16.06Z"/>
  <path class="st0" d="M1040.2,210.93c-8.84-22.66-32.99-39.75-58.78-39.81l-188.54-.44,2.4,73.89c8.04,1.84,14.22-.51,21.4,2.99l-31.51,179.68,86.08.06,14.36-71.95,74.58-.77c42.85-.44,73.12-31.47,80.33-72.87,4.13-23.72,8.97-47.02-.31-70.8ZM948.27,280.8c-18.64,1.7-33.22,1.17-49.12.17,1.42-12.65,2.55-22.43,6.39-34.97,14.02.69,29.77-3.8,43.31,2.1,11.65,5.07,7.12,23.41-.58,32.7Z"/>
</svg>