<?xml version="1.0" encoding="UTF-8"?>
<svg id="Layer_1" xmlns="http://www.w3.org/2000/svg" version="1.1" viewBox="0 0 760.98 121.22">
  <!-- Generator: Adobe Illustrator 30.5.1, SVG Export Plug-In . SVG Version: 2.1.4 Build 3)  -->
  <defs>
    <style>
      .st0 {
        fill: #fff;
      }

      .st1 {
        fill: #1c1c1b;
      }
    </style>
  </defs>
  <polygon class="st0" points="107.59 119.02 67.82 119.55 74.94 76.26 47.91 75.94 39.83 119.22 0 119.34 21.29 1.33 61.01 1.01 54.45 42.71 80.72 42.79 88.77 1.04 128.54 1.07 107.59 119.02"/>
  <path class="st1" d="M722.53,56.7l15.15,62.52-38.61.21-11.28-39.4c-.58-2.01-7.6-2.31-8.18-.26l-7.53,39.14c-13.07,1.17-25.94.56-40.04.41L653.69,1.05l39.38.06c-1.27,14.33-5.88,26.77-5.94,40.21-.01,2.67,6.01.07,7.2-1.58l27.9-38.65,38.75.19-38.46,55.42Z"/>
  <path class="st1" d="M573.36,86.73c9.87,1.31,16.58-2.89,18.21-12.39l38.51,1.57c1.91,21.43-11.85,39.8-33.85,43.25-17.53,2.75-35.86,2.98-53.21-.69-15.06-3.18-24.4-16.02-22.45-31.45,2.37-18.76,5.7-36.91,10.08-55.22,3.65-15.23,15.1-26.41,30.56-29.09,18.59-3.22,37.62-3.43,56.06.06,9.3,1.76,17.46,7.62,20.2,16.37,2.56,8.2,1.68,16.37-.14,24.85l-40.22,1.86c-.66-3.43-.71-6.1-2.15-7.87-1.93-2.36-5.54-2.2-8.57-2.55-9.36-1.07-15.73,3.08-17.28,12.11l-5.11,29.65c-.5,2.9.08,5.36,1.52,6.96,1.77,1.97,4.49,2.12,7.84,2.57Z"/>
  <path class="st0" d="M300.63,119.1l-40.29.38,14.88-83.32-26.2-1.02c.53-11.93-.38-23.01-7.06-34l105.94-.32,1.24,34.44-33.52.55-14.99,83.28Z"/>
  <polygon class="st1" points="506.51 119.02 465.97 119.31 487.16 1.05 527.61 1.13 506.51 119.02"/>
  <path class="st0" d="M219,1.99c-17.73-2.8-35.99-2.5-53.82,0-17.69,2.48-30.8,14.83-33.9,32.06l-9.3,51.75c-2.74,15.25,6.92,29.34,22.75,32.38,19.48,3.73,40.21,3.76,60.63-.13,14.02-2.67,25.02-12.74,28.22-25.77,4.84-19.79,8.21-39.52,9.44-59.82.95-15.62-8.61-28.03-24.03-30.47ZM199.52,44.38l-5.33,30.35c-1.59,9.08-7.49,12.71-16.03,12.05-3.16-.24-6.55-.18-9.06-1.98-6.5-4.67,1.26-36.23,3.5-43.16,3.1-9.59,20.75-7.51,24.82-4.66,1.9,1.33,2.63,4.36,2.09,7.41Z"/>
  <path class="st1" d="M470.21,19.62c-4.08-10.45-15.22-18.34-27.12-18.37l-86.99-.2,1.11,34.09c3.71.85,6.56-.24,9.87,1.38l-14.54,82.9,39.71.03,6.63-33.19,34.41-.36c19.77-.2,33.73-14.52,37.06-33.62,1.91-10.94,4.14-21.69-.14-32.66ZM427.79,51.86c-8.6.79-15.33.54-22.66.08.66-5.84,1.18-10.35,2.95-16.13,6.47.32,13.74-1.75,19.98.97,5.37,2.34,3.29,10.8-.27,15.09Z"/>
</svg>